<svg width="20" height="13" viewBox="0 0 20 13" fill="none" xmlns="http://www.w3.org/2000/svg">
<path d="M19 7.52856C18.7348 7.52856 18.4804 7.4232 18.2929 7.23567C18.1054 7.04813 18 6.79378 18 6.52856V3.93856L11.71 10.2386C11.617 10.3323 11.5064 10.4067 11.3846 10.4575C11.2627 10.5082 11.132 10.5344 11 10.5344C10.868 10.5344 10.7373 10.5082 10.6154 10.4575C10.4936 10.4067 10.383 10.3323 10.29 10.2386L7 6.93856L1.71 12.2386C1.5217 12.4269 1.2663 12.5327 1 12.5327C0.733699 12.5327 0.478304 12.4269 0.29 12.2386C0.101697 12.0503 -0.00409126 11.7949 -0.00409126 11.5286C-0.00409126 11.2623 0.101697 11.0069 0.29 10.8186L6.29 4.81856C6.38296 4.72483 6.49356 4.65044 6.61542 4.59967C6.73728 4.5489 6.86799 4.52276 7 4.52276C7.13201 4.52276 7.26272 4.5489 7.38458 4.59967C7.50644 4.65044 7.61704 4.72483 7.71 4.81856L11 8.11856L16.59 2.52856H14C13.7348 2.52856 13.4804 2.42321 13.2929 2.23567C13.1054 2.04813 13 1.79378 13 1.52856C13 1.26335 13.1054 1.00899 13.2929 0.821455C13.4804 0.633919 13.7348 0.528563 14 0.528563H19C19.1307 0.530143 19.2598 0.557322 19.38 0.608562C19.6243 0.710037 19.8185 0.904214 19.92 1.14856C19.9712 1.26879 19.9984 1.39789 20 1.52856V6.52856C20 6.79378 19.8946 7.04813 19.7071 7.23567C19.5196 7.4232 19.2652 7.52856 19 7.52856Z" fill="white"/>
</svg>
