<svg width="19" height="21" viewBox="0 0 19 21" fill="none" xmlns="http://www.w3.org/2000/svg">
<path fill-rule="evenodd" clip-rule="evenodd" d="M16.09 1.08164C15.538 0.771643 14.95 0.741643 14.329 0.818643C13.739 0.892643 13.02 1.07864 12.157 1.30364L10.138 1.82764C9.275 2.05264 8.557 2.23864 8.008 2.46164C7.429 2.69564 6.929 3.00964 6.605 3.55464C6.279 4.10264 6.247 4.68864 6.328 5.30064C6.405 5.87764 6.598 6.57764 6.828 7.41164L7.371 9.37564C7.601 10.2106 7.795 10.9096 8.026 11.4456C8.271 12.0156 8.598 12.5006 9.154 12.8126C9.706 13.1216 10.294 13.1526 10.916 13.0746C11.506 13.0016 12.225 12.8146 13.088 12.5896L15.107 12.0656C15.97 11.8416 16.688 11.6546 17.237 11.4316C17.816 11.1976 18.316 10.8836 18.64 10.3386C18.966 9.79064 18.998 9.20464 18.917 8.59364C18.84 8.01664 18.647 7.31564 18.417 6.48164L17.874 4.51764C17.644 3.68364 17.45 2.98364 17.219 2.44764C16.974 1.87764 16.645 1.39264 16.09 1.08164ZM12.486 2.76764C13.411 2.52764 14.034 2.36764 14.516 2.30764C14.977 2.24964 15.198 2.30064 15.359 2.39064C15.516 2.47864 15.667 2.63164 15.842 3.04064C16.027 3.47064 16.195 4.06964 16.443 4.96764L16.957 6.83064C17.206 7.72864 17.37 8.32864 17.431 8.79064C17.489 9.22964 17.437 9.42864 17.351 9.57164C17.264 9.71864 17.106 9.86764 16.676 10.0416C16.228 10.2226 15.606 10.3866 14.681 10.6266L12.761 11.1256C11.836 11.3656 11.213 11.5256 10.731 11.5856C10.269 11.6446 10.049 11.5936 9.888 11.5036C9.731 11.4156 9.58 11.2616 9.405 10.8536C9.22 10.4236 9.052 9.82364 8.804 8.92564L8.29 7.06364C8.041 6.16364 7.877 5.56464 7.816 5.10364C7.758 4.66364 7.81 4.46564 7.896 4.32164C7.983 4.17464 8.141 4.02564 8.571 3.85164C9.019 3.67064 9.641 3.50764 10.566 3.26664L12.486 2.76764Z" fill="#322EC0"/>
<path fill-rule="evenodd" clip-rule="evenodd" d="M1.2 3.25766C1.01055 3.21121 0.810449 3.2404 0.642162 3.33904C0.473875 3.43768 0.350638 3.598 0.298598 3.786C0.246558 3.97399 0.269809 4.17487 0.363418 4.346C0.457028 4.51714 0.61363 4.64507 0.8 4.70266L2.503 5.17566C2.929 5.29366 3.246 5.61566 3.354 6.00666L5.306 13.0697C5.23047 13.0846 5.15543 13.102 5.081 13.1217C3.104 13.6347 1.896 15.6237 2.438 17.5887C2.978 19.5437 5.032 20.6707 7.001 20.1587C8.725 19.7117 9.864 18.1427 9.768 16.4467L18.188 14.2587C18.2833 14.2339 18.3729 14.1906 18.4515 14.1313C18.5301 14.0719 18.5962 13.9976 18.6461 13.9127C18.6961 13.8278 18.7288 13.7339 18.7424 13.6363C18.756 13.5388 18.7503 13.4395 18.7255 13.3442C18.7007 13.2488 18.6575 13.1593 18.5981 13.0807C18.5387 13.0021 18.4645 12.9359 18.3796 12.886C18.2947 12.8361 18.2007 12.8034 18.1032 12.7898C18.0056 12.7762 17.9063 12.7819 17.811 12.8067L9.373 14.9997C9.12056 14.5173 8.76529 14.0962 8.33227 13.7661C7.89925 13.4361 7.39905 13.2052 6.867 13.0897L4.8 5.60666C4.67312 5.15651 4.43178 4.74691 4.0995 4.41778C3.76722 4.08866 3.35534 3.85124 2.904 3.72866L1.2 3.25766ZM5.459 14.5727C6.671 14.2587 7.887 14.9617 8.199 16.0917C8.509 17.2117 7.829 18.3947 6.625 18.7077C5.413 19.0227 4.197 18.3187 3.885 17.1887C3.575 16.0687 4.255 14.8857 5.459 14.5727Z" fill="#322EC0"/>
</svg>
